<?xml version="1.0" encoding="utf-8"?>
<!-- Generator: Adobe Illustrator 14.0.0, SVG Export Plug-In . SVG Version: 6.00 Build 43363)  -->
<!DOCTYPE svg PUBLIC "-//W3C//DTD SVG 1.1//EN" "http://www.w3.org/Graphics/SVG/1.1/DTD/svg11.dtd">
<svg version="1.1" id="Layer_1" xmlns="http://www.w3.org/2000/svg" xmlns:xlink="http://www.w3.org/1999/xlink" x="0px" y="0px"
	 width="65px" height="65px" viewBox="0 0 65 65" enable-background="new 0 0 65 65" xml:space="preserve">
<path fill="#221F1F" d="M63,2v61H2V2H63 M65,0H0v65h65V0L65,0z M31.12,35.868c0,1.03-0.575,1.79-1.725,2.28
	c-0.82,0.35-1.811,0.524-2.971,0.524c-1.25,0-2.189-0.16-2.82-0.479c-0.89-0.45-1.334-1.255-1.334-2.415
	c0-0.34,0.049-1.16,0.149-2.46c-0.76,0.01-1.78,0.03-3.06,0.06v-1.439c1.18-0.021,2.244-0.03,3.195-0.03l0.149-1.815
	c-0.7,0-1.785,0.011-3.255,0.03l0.045-1.365l3.314-0.029l0.226-2.4l1.38,0.15l-0.195,2.234c1.2-0.029,2.836-0.1,4.905-0.21
	l-0.045,1.38c-1.04,0.061-2.705,0.131-4.995,0.21l-0.15,1.801c1.4-0.04,3.115-0.15,5.146-0.33l0.03,1.395
	c-1.041,0.101-2.805,0.21-5.295,0.33c-0.101,1.311-0.15,2.141-0.15,2.49c0,0.7,0.314,1.155,0.945,1.365
	c0.33,0.109,0.935,0.165,1.814,0.165c2.131,0,3.195-0.495,3.195-1.485c0-0.46-0.215-1.025-0.645-1.695l1.334-0.6
	c0.211,0.32,0.4,0.71,0.57,1.17C31.04,35.158,31.12,35.548,31.12,35.868z M45.64,36.724l-0.104,1.515
	c-2.15,0.16-3.646,0.24-4.485,0.24c-1.66,0-2.91-0.15-3.75-0.45c-1.42-0.49-2.13-1.425-2.13-2.805c0-1.57,1.105-2.855,3.315-3.855
	c-0.24-2.03-0.36-3.675-0.36-4.935l1.44-0.045c0,1.359,0.1,2.835,0.3,4.425c0.97-0.34,2.685-0.835,5.145-1.485l0.436,1.396
	c-1.26,0.34-2.521,0.675-3.78,1.005c-1.521,0.439-2.72,0.925-3.6,1.455c-1,0.59-1.5,1.27-1.5,2.04c0,0.819,0.585,1.364,1.755,1.635
	c0.59,0.14,1.505,0.21,2.745,0.21C41.865,37.068,43.39,36.953,45.64,36.724z"/>
</svg>
